<svg width="61" height="60" viewBox="0 0 61 60" fill="none" xmlns="http://www.w3.org/2000/svg">
<g clip-path="url(#clip0_1_5788)">
<path d="M28.4188 0.276963C27.6346 0.39655 26.9526 0.533189 26.9185 0.58442C26.8674 0.618599 26.9185 1.1481 27.0209 1.74604C27.1231 2.34383 27.2254 2.97587 27.2425 3.16382C27.2765 3.42004 27.0549 3.53963 26.0831 3.79586C23.8326 4.41078 24.0713 4.49619 23.6109 3.02718C23.3893 2.30973 23.1335 1.72892 23.0483 1.72892C22.5709 1.72892 19.5191 2.80506 19.5191 2.97588C19.5191 3.09547 19.7067 3.71045 19.9453 4.3766C20.167 5.02577 20.3716 5.65774 20.3716 5.76027C20.3716 5.91396 17.9676 7.53681 17.729 7.53681C17.6778 7.53681 17.1323 6.99018 16.5185 6.34108C15.8877 5.67486 15.342 5.14528 15.2739 5.14528C15.2227 5.14528 14.5407 5.69191 13.7565 6.35813L12.3414 7.57092L13.4837 8.85213L14.626 10.1161L13.4667 11.2948L12.3073 12.4564L11.1479 11.534C10.5171 11.0215 9.95446 10.6115 9.92041 10.6115C9.88629 10.6115 9.28956 11.2778 8.60759 12.0806C7.56758 13.3105 7.39712 13.6009 7.6017 13.7546C8.91445 14.7454 9.97152 15.5995 9.97152 15.6678C9.97152 15.7532 8.62465 18.2984 8.48824 18.4521C8.45412 18.5034 7.78921 18.3155 6.98791 18.0421C6.20364 17.7689 5.52168 17.581 5.48758 17.6322C5.19774 17.9567 4.14068 21.0656 4.27708 21.1852C4.36232 21.2706 4.97609 21.5098 5.62397 21.7148C6.28889 21.9198 6.86857 22.1419 6.91972 22.2101C7.03906 22.3127 6.39119 25.1995 6.2207 25.3532C6.16954 25.4045 5.52168 25.3362 4.78856 25.1995C4.03839 25.0799 3.40756 24.9945 3.37346 25.0287C3.33937 25.0458 3.13478 25.8999 2.91313 26.9077C2.64035 28.1888 2.57215 28.7697 2.70854 28.8038C2.81084 28.8379 3.44166 28.9575 4.08954 29.06C5.93086 29.3675 5.87971 29.3333 5.87971 30.102V30.7682H9.54531H13.2109V29.7774C13.228 25.934 14.7794 21.5098 17.2175 18.2984C18.0359 17.2394 20.0647 15.1382 20.525 14.8991C20.7808 14.7624 21.0876 15.1382 22.6903 17.5639C23.7132 19.1184 24.7021 20.6557 24.8726 20.9632L25.1965 21.5098L24.4123 22.4151C23.4405 23.5426 22.5709 25.1482 22.0595 26.8394C21.7185 27.8984 21.6503 28.4963 21.6673 30.2557C21.6673 31.4344 21.7526 32.6985 21.8719 33.0743C22.0254 33.5868 22.0254 33.7746 21.8549 33.8771C21.7526 33.9454 16.8253 35.6194 10.9263 37.601C5.01019 39.5654 0.117053 41.2565 0.0488562 41.3249C-0.0193409 41.3932 4.9079 39.7874 11.0286 37.7376C17.1323 35.6878 22.1447 34.0309 22.1618 34.065C22.1788 34.0821 22.3152 34.4579 22.4686 34.8849C22.6392 35.312 23.0313 36.0807 23.3552 36.5931C24.4976 38.4038 24.8044 37.7889 20.6103 42.1106C17.0981 45.749 16.7913 46.0224 14.9329 47.1498L12.9551 48.3455L12.546 50.4466C12.3244 51.6082 12.0686 52.6843 11.9834 52.8381C11.8981 53.0089 11.8811 53.1455 11.9493 53.1455C12.0174 53.1455 13.0574 52.6331 14.285 51.984L16.5014 50.8395L17.2856 49.1997C18.0529 47.5939 18.1723 47.4402 21.7867 43.7334C23.8326 41.6323 25.6228 39.8387 25.7592 39.7704C25.9126 39.685 26.2025 39.7874 26.5605 40.0437C27.7539 40.9661 29.5441 41.6665 31.3343 41.9569C31.8628 42.0423 31.9651 42.1277 31.9651 42.4693C31.9651 42.7085 31.8628 42.8964 31.7605 42.8964C31.3172 42.8793 29.2713 42.5547 28.9985 42.4523C28.7598 42.3668 28.7258 42.5206 28.7258 43.8017C28.7258 45.0999 28.7598 45.2708 29.0497 45.3733C29.3224 45.4587 29.3736 45.5782 29.2713 46.1078C29.0668 47.3377 29.1008 47.406 29.8339 47.5256C30.209 47.5939 30.5671 47.611 30.6182 47.5768C30.6864 47.5427 30.7717 47.1327 30.8398 46.6544C30.9421 45.8857 30.9933 45.8003 31.3684 45.8003C31.7776 45.8003 31.7946 45.8516 31.7946 46.7398V47.6793H32.647H33.4995V46.7398C33.4995 45.8857 33.5337 45.8003 33.9258 45.6978C34.5907 45.527 34.8124 45.7149 34.9317 46.5519C35.0511 47.3035 35.0851 47.3377 35.5966 47.3377C36.4661 47.3377 36.5684 47.1839 36.3638 46.2444C36.1934 45.3903 36.2615 45.1853 36.79 45.0829C37.0287 45.0487 37.1822 45.2366 37.4209 45.8686C37.6084 46.3128 37.7789 46.7227 37.813 46.7569C37.8812 46.8252 39.1258 46.347 39.1258 46.2444C39.1258 46.2274 38.9723 45.7662 38.8019 45.2366C38.5632 44.5533 38.5291 44.263 38.6655 44.2117C38.9042 44.1263 37.9835 42.2302 37.6596 42.0936C37.5402 42.0594 36.9264 42.179 36.2956 42.3668C35.6477 42.5377 34.8635 42.7427 34.5737 42.7939C34.0451 42.8793 34.0111 42.8451 34.0111 42.4181C34.0111 41.991 34.0963 41.9398 35.2215 41.6665C35.9035 41.4957 36.7389 41.2223 37.097 41.0174L37.7619 40.6757L39.7055 43.648C42.314 47.6281 42.1606 47.2352 41.3081 47.6793C39.7566 48.4822 36.2274 49.5583 35.0851 49.5583H34.5225V53.6238V57.6893L35.8524 57.5356C36.5684 57.4502 37.4209 57.3648 37.7448 57.3648C38.3757 57.3306 38.3415 57.2794 38.853 59.4829L38.9553 59.9442L40.7796 59.6025C41.7855 59.4317 42.6379 59.2438 42.6891 59.2096C42.7232 59.1584 42.6209 58.4751 42.4504 57.6552C42.28 56.8182 42.2117 56.1349 42.2969 56.0666C42.3822 55.9982 43.0301 55.6566 43.7462 55.332L45.0589 54.7171L46.0478 56.0666C46.5934 56.8011 47.1048 57.416 47.1901 57.416C47.5311 57.416 50.3613 55.3149 50.259 55.1441C50.1908 55.0416 49.7816 54.4609 49.3213 53.863C48.878 53.248 48.5029 52.7014 48.5029 52.6502C48.5029 52.5818 49.0484 52.0864 49.7134 51.5399L50.9239 50.5491L52.0151 51.6253L53.1233 52.6843L53.8394 52.0182C54.2314 51.6594 54.8794 51.0445 55.2885 50.6687L56.0046 50.0024L54.8111 48.7897L53.6177 47.5768L54.4701 46.3982C54.9305 45.749 55.3397 45.1512 55.3737 45.0658C55.3908 44.9804 56.0217 45.1853 56.7547 45.527C57.4879 45.8686 58.1869 46.142 58.2892 46.142C58.4427 46.142 60.0964 43.1013 60.0964 42.8281C60.0964 42.7939 59.4826 42.4693 58.7325 42.1106C57.9823 41.769 57.3685 41.4273 57.3685 41.3761C57.3685 41.3249 57.5902 40.6928 57.863 39.9924C58.1357 39.2921 58.3915 38.5063 58.4597 38.233L58.5619 37.7718H54.5554H50.5488L50.2931 38.3867C49.9351 39.2579 48.9121 40.9319 48.0426 42.0764C47.2583 43.1185 45.1272 45.2879 44.8885 45.2879C44.8032 45.2879 44.3088 44.6217 43.7802 43.8017C43.2517 42.9647 42.2969 41.5128 41.6491 40.5391C41.0182 39.5825 40.4897 38.7455 40.4897 38.6943C40.4897 38.6601 40.7966 38.2159 41.1888 37.7376C42.3822 36.2173 43.337 33.9626 43.6268 31.9127L43.7462 31.1098H44.5134C45.1783 31.1098 45.2636 31.144 45.2636 31.5028C45.2636 32.7155 44.0872 36.0465 43.2176 37.2593C43.0301 37.5156 42.8766 37.7889 42.8766 37.8402C42.8766 37.8914 43.2347 37.9426 43.695 37.9426C44.2406 37.9426 44.8544 38.1134 45.5704 38.4551C46.1672 38.7455 46.7127 38.9334 46.798 38.8821C46.9514 38.7797 47.3777 37.7718 47.2924 37.7034C47.2583 37.6864 46.8661 37.4472 46.4058 37.191C45.7069 36.7981 45.6216 36.6957 45.775 36.4053C45.9967 35.9953 46.0478 35.9953 46.9685 36.3198C47.9062 36.6444 47.9062 36.6444 48.1278 36.149C48.4518 35.4316 48.3665 35.2778 47.5311 34.9533C46.4741 34.5604 46.4229 34.4921 46.5593 33.9454C46.6616 33.4842 46.6786 33.4842 47.7357 33.5868C48.3154 33.655 48.8439 33.638 48.8951 33.5696C48.9462 33.4842 49.0144 33.1426 49.0485 32.8181L49.0996 32.2202L48.0767 32.0494C47.2072 31.8956 47.0367 31.8102 47.0025 31.4856C46.9514 31.1269 47.0026 31.1098 48.0596 31.1098H49.1849V30.3411V29.5725H48.0767H46.9685V28.9917C46.9685 28.3425 47.0196 28.3084 48.2983 28.1205L49.0485 28.0009L48.9291 27.3689C48.8609 27.0273 48.7586 26.7027 48.7075 26.6344C48.6393 26.5831 48.179 26.6003 47.6845 26.7027C46.9344 26.8565 46.7298 26.8394 46.6105 26.6515C46.3376 26.2073 46.457 26.0536 47.4118 25.729C47.9232 25.5582 48.3835 25.3703 48.4006 25.319C48.4347 25.2678 48.3495 24.9262 48.2131 24.5845L47.9573 23.9696L47.0196 24.2941C46.4911 24.465 46.0478 24.6017 46.0308 24.5845C45.9455 24.3967 45.6046 23.5596 45.6046 23.5084C45.6046 23.4742 46.0308 23.2009 46.5593 22.9105C47.0708 22.6031 47.5482 22.2614 47.5993 22.1419C47.7016 21.8685 47.1731 21.0315 46.9003 21.0315C46.798 21.0486 46.3376 21.3048 45.8602 21.6294C45.0078 22.2101 45.0078 22.2101 44.735 21.8685C44.4793 21.5269 44.4622 21.5269 43.7462 22.176L43.013 22.8251L43.4392 23.4742C44.0701 24.3967 44.8885 26.6173 45.1272 28.018C45.2465 28.6843 45.2976 29.265 45.2465 29.2992C45.1953 29.3504 44.8544 29.4358 44.4622 29.5042L43.7632 29.6066L43.6439 28.7867C43.4563 27.403 42.8937 25.6266 42.1947 24.3454L41.5468 23.1326L43.7973 21.2536C50.3954 15.7019 52.9527 13.5667 53.9587 12.7638L55.0669 11.8585L56.2604 11.9781C56.9253 12.0464 57.4538 12.0806 57.4708 12.0806C57.6925 11.8414 60.9489 6.30691 60.9489 6.1702C60.9489 5.93109 61.2046 5.87986 57.3174 7.02436L54.1462 7.96386L54.061 8.73254C54.0098 9.15959 53.9246 9.92827 53.8564 10.4407L53.737 11.3802L47.2583 16.7781L40.7626 22.1931L39.7225 21.2536C38.5802 20.2115 36.5343 19.1184 35.1022 18.7938C34.2156 18.5888 34.1815 18.5717 34.1815 18.008C34.1815 17.376 34.1133 17.393 35.716 17.803C36.0399 17.8884 36.3638 17.9567 36.449 17.9567C36.5173 17.9567 36.5684 17.3418 36.5684 16.5731C36.5684 15.309 36.5343 15.1895 36.2103 15.104C35.8864 15.0186 35.8694 14.9162 35.9717 14.1133L36.074 13.208L35.375 13.0884C34.9828 13.0201 34.6418 13.003 34.5907 13.0542C34.5566 13.0884 34.4543 13.4642 34.3861 13.8742C34.3179 14.3012 34.1644 14.6258 34.0451 14.6087C33.9428 14.5916 33.7212 14.5745 33.5848 14.5575C33.3973 14.5404 33.3291 14.3183 33.3291 13.6863V12.8322H32.5618H31.7946V13.6863C31.7946 14.3867 31.7434 14.5404 31.5047 14.5404C31.3343 14.5404 31.0274 14.5916 30.8228 14.6429C30.4818 14.7283 30.4307 14.66 30.3284 14.0621C30.1749 13.0884 30.0726 13.003 29.3395 13.1226L28.6916 13.225L28.811 14.1133C28.9133 14.9504 28.8962 15.0186 28.5211 15.1212C27.9245 15.2749 27.9245 15.2749 27.7028 14.455C27.4641 13.6009 27.43 13.5838 26.5946 13.9254L26.0149 14.1817L26.2536 14.7795C26.39 15.104 26.5093 15.5482 26.5093 15.7532C26.5093 16.0435 27.2595 17.393 27.8051 18.0934C27.8222 18.1275 28.5382 18.008 29.3736 17.803C31.3343 17.3418 31.3172 17.3418 31.2491 17.9739C31.1979 18.4863 31.1297 18.5375 29.8339 18.9304C29.0838 19.1525 28.3507 19.3746 28.1972 19.4258C27.9926 19.4942 27.43 18.7767 25.9978 16.556C24.9408 14.9332 23.969 13.43 23.8326 13.225C23.5939 12.8664 23.628 12.8322 24.5657 12.4051C26.7651 11.3973 30.0385 10.6115 32.1015 10.6115H32.8176V6.76813V2.92465H31.9992H31.1638L30.9421 1.47269C30.6864 -0.201314 30.891 -0.0988522 28.4188 0.276963ZM34.1133 23.2692C37.8983 23.9696 40.4897 27.6252 39.859 31.3832C38.8701 37.1739 31.7094 39.4288 27.5835 35.2437C23.7132 31.2978 25.5375 24.7895 30.9421 23.3205C31.914 23.0472 32.8346 23.0301 34.1133 23.2692Z" fill="white"/>
<path d="M26.9185 0.58442C26.8674 0.618599 26.9185 1.1481 27.0209 1.74604C27.1231 2.34383 27.2254 2.97587 27.2425 3.16382C27.2765 3.42004 27.0549 3.53963 26.0831 3.79586C23.8326 4.41078 24.0713 4.49619 23.6109 3.02718C23.3893 2.30973 23.1335 1.72892 23.0483 1.72892C22.5709 1.72892 19.5191 2.80506 19.5191 2.97588C19.5191 3.09547 19.7067 3.71045 19.9453 4.3766C20.167 5.02577 20.3716 5.65774 20.3716 5.76027C20.3716 5.91396 17.9676 7.53681 17.729 7.53681C17.6778 7.53681 17.1323 6.99018 16.5185 6.34108C15.8877 5.67486 15.342 5.14528 15.2739 5.14528C15.2227 5.14528 14.5407 5.69191 13.7565 6.35813L12.3414 7.57092L13.4837 8.85213L14.626 10.1161L13.4667 11.2948L12.3073 12.4564L11.1479 11.534C10.5171 11.0215 9.95446 10.6115 9.92041 10.6115C9.88629 10.6115 9.28956 11.2778 8.60759 12.0806C7.56758 13.3105 7.39712 13.6009 7.6017 13.7546C8.91445 14.7454 9.97152 15.5995 9.97152 15.6678C9.97152 15.7532 8.62465 18.2984 8.48824 18.4521C8.45412 18.5034 7.78921 18.3155 6.98791 18.0421C6.20364 17.7689 5.52168 17.581 5.48758 17.6322C5.19774 17.9567 4.14068 21.0656 4.27708 21.1852C4.36232 21.2706 4.97609 21.5098 5.62397 21.7148C6.28889 21.9198 6.86857 22.1419 6.91972 22.2101C7.03906 22.3127 6.39119 25.1995 6.2207 25.3532C6.16954 25.4045 5.52168 25.3362 4.78856 25.1995C4.03839 25.0799 3.40756 24.9945 3.37346 25.0287C3.33937 25.0458 3.13478 25.8999 2.91313 26.9077C2.64035 28.1888 2.57215 28.7697 2.70854 28.8038C2.81084 28.8379 3.44166 28.9575 4.08954 29.06C5.93086 29.3675 5.87971 29.3333 5.87971 30.102V30.7682H9.54531H13.2109V29.7774C13.228 25.934 14.7794 21.5098 17.2175 18.2984C18.0359 17.2394 20.0647 15.1382 20.525 14.8991C20.7808 14.7624 21.0876 15.1382 22.6903 17.5639C23.7132 19.1184 24.7021 20.6557 24.8726 20.9632L25.1965 21.5098L24.4123 22.4151C23.4405 23.5426 22.5709 25.1482 22.0595 26.8394C21.7185 27.8984 21.6503 28.4963 21.6673 30.2557C21.6673 31.4344 21.7526 32.6985 21.8719 33.0743C22.0254 33.5868 22.0254 33.7746 21.8549 33.8771C21.7526 33.9454 16.8253 35.6194 10.9263 37.601C5.01019 39.5654 0.117053 41.2565 0.0488562 41.3249C-0.0193409 41.3932 4.9079 39.7874 11.0286 37.7376C17.1323 35.6878 22.1447 34.0309 22.1618 34.065C22.1788 34.0821 22.3152 34.4579 22.4686 34.8849C22.6392 35.312 23.0313 36.0807 23.3552 36.5931C24.4976 38.4038 24.8044 37.7889 20.6103 42.1106C17.0981 45.749 16.7913 46.0224 14.9329 47.1498L12.9551 48.3455L12.546 50.4466C12.3244 51.6082 12.0686 52.6843 11.9834 52.8381C11.8981 53.0089 11.8811 53.1455 11.9493 53.1455C12.0174 53.1455 13.0574 52.6331 14.285 51.984L16.5014 50.8395L17.2856 49.1997C18.0529 47.5939 18.1723 47.4402 21.7867 43.7334C23.8326 41.6323 25.6228 39.8387 25.7592 39.7704C25.9126 39.685 26.2025 39.7874 26.5605 40.0437C27.7539 40.9661 29.5441 41.6665 31.3343 41.9569C31.8628 42.0423 31.9651 42.1277 31.9651 42.4693C31.9651 42.7085 31.8628 42.8964 31.7605 42.8964C31.3172 42.8793 29.2713 42.5547 28.9985 42.4523C28.7598 42.3668 28.7258 42.5206 28.7258 43.8017C28.7258 45.0999 28.7598 45.2708 29.0497 45.3733C29.3224 45.4587 29.3736 45.5782 29.2713 46.1078C29.0668 47.3377 29.1008 47.406 29.8339 47.5256C30.209 47.5939 30.5671 47.611 30.6182 47.5768C30.6864 47.5427 30.7717 47.1327 30.8398 46.6544C30.9421 45.8857 30.9933 45.8003 31.3684 45.8003C31.7776 45.8003 31.7946 45.8516 31.7946 46.7398V47.6793H32.647H33.4995V46.7398C33.4995 45.8857 33.5337 45.8003 33.9258 45.6978C34.5907 45.527 34.8124 45.7149 34.9317 46.5519C35.0511 47.3035 35.0851 47.3377 35.5966 47.3377C36.4661 47.3377 36.5684 47.1839 36.3638 46.2444C36.1934 45.3903 36.2615 45.1853 36.79 45.0829C37.0287 45.0487 37.1822 45.2366 37.4209 45.8686C37.6084 46.3128 37.7789 46.7227 37.813 46.7569C37.8812 46.8252 39.1258 46.347 39.1258 46.2444C39.1258 46.2274 38.9723 45.7662 38.8019 45.2366C38.5632 44.5533 38.5291 44.263 38.6655 44.2117C38.9042 44.1263 37.9835 42.2302 37.6596 42.0936C37.5402 42.0594 36.9264 42.179 36.2956 42.3668C35.6477 42.5377 34.8635 42.7427 34.5737 42.7939C34.0451 42.8793 34.0111 42.8451 34.0111 42.4181C34.0111 41.991 34.0963 41.9398 35.2215 41.6665C35.9035 41.4957 36.7389 41.2223 37.097 41.0174L37.7619 40.6757L39.7055 43.648C42.314 47.6281 42.1606 47.2352 41.3081 47.6793C39.7566 48.4822 36.2274 49.5583 35.0851 49.5583H34.5225V53.6238V57.6893L35.8524 57.5356C36.5684 57.4502 37.4209 57.3648 37.7448 57.3648C38.3757 57.3306 38.3415 57.2794 38.853 59.4829L38.9553 59.9442L40.7796 59.6025C41.7855 59.4317 42.6379 59.2438 42.6891 59.2096C42.7232 59.1584 42.6209 58.4751 42.4504 57.6552C42.28 56.8182 42.2117 56.1349 42.2969 56.0666C42.3822 55.9982 43.0301 55.6566 43.7462 55.332L45.0589 54.7171L46.0478 56.0666C46.5934 56.8011 47.1048 57.416 47.1901 57.416C47.5311 57.416 50.3613 55.3149 50.259 55.1441C50.1908 55.0416 49.7816 54.4609 49.3213 53.863C48.878 53.248 48.5029 52.7014 48.5029 52.6502C48.5029 52.5818 49.0484 52.0864 49.7134 51.5399L50.9239 50.5491L52.0151 51.6253L53.1233 52.6843L53.8394 52.0182C54.2314 51.6594 54.8794 51.0445 55.2885 50.6687L56.0046 50.0024L54.8111 48.7897L53.6177 47.5768L54.4701 46.3982C54.9305 45.749 55.3397 45.1512 55.3737 45.0658C55.3908 44.9804 56.0217 45.1853 56.7547 45.527C57.4879 45.8686 58.1869 46.142 58.2892 46.142C58.4427 46.142 60.0964 43.1013 60.0964 42.8281C60.0964 42.7939 59.4826 42.4693 58.7325 42.1106C57.9823 41.769 57.3685 41.4273 57.3685 41.3761C57.3685 41.3249 57.5902 40.6928 57.863 39.9924C58.1357 39.2921 58.3915 38.5063 58.4597 38.233L58.5619 37.7718H54.5554H50.5488L50.2931 38.3867C49.9351 39.2579 48.9121 40.9319 48.0426 42.0764C47.2583 43.1185 45.1272 45.2879 44.8885 45.2879C44.8032 45.2879 44.3088 44.6217 43.7802 43.8017C43.2517 42.9647 42.2969 41.5128 41.6491 40.5391C41.0182 39.5825 40.4897 38.7455 40.4897 38.6943C40.4897 38.6601 40.7966 38.2159 41.1888 37.7376C42.3822 36.2173 43.337 33.9626 43.6268 31.9127L43.7462 31.1098H44.5134C45.1783 31.1098 45.2636 31.144 45.2636 31.5028C45.2636 32.7155 44.0872 36.0465 43.2176 37.2593C43.0301 37.5156 42.8766 37.7889 42.8766 37.8402C42.8766 37.8914 43.2347 37.9426 43.695 37.9426C44.2406 37.9426 44.8544 38.1134 45.5704 38.4551C46.1672 38.7455 46.7127 38.9334 46.798 38.8821C46.9514 38.7797 47.3777 37.7718 47.2924 37.7034C47.2583 37.6864 46.8661 37.4472 46.4058 37.191C45.7069 36.7981 45.6216 36.6957 45.775 36.4053C45.9967 35.9953 46.0478 35.9953 46.9685 36.3198C47.9062 36.6444 47.9062 36.6444 48.1278 36.149C48.4518 35.4316 48.3665 35.2778 47.5311 34.9533C46.4741 34.5604 46.4229 34.4921 46.5593 33.9454C46.6616 33.4842 46.6786 33.4842 47.7357 33.5868C48.3154 33.655 48.8439 33.638 48.8951 33.5696C48.9462 33.4842 49.0144 33.1426 49.0485 32.8181L49.0996 32.2202L48.0767 32.0494C47.2072 31.8956 47.0367 31.8102 47.0025 31.4856C46.9514 31.1269 47.0026 31.1098 48.0596 31.1098H49.1849V30.3411V29.5725H48.0767H46.9685V28.9917C46.9685 28.3425 47.0196 28.3084 48.2983 28.1205L49.0485 28.0009L48.9291 27.3689C48.8609 27.0273 48.7586 26.7027 48.7075 26.6344C48.6393 26.5831 48.179 26.6003 47.6845 26.7027C46.9344 26.8565 46.7298 26.8394 46.6105 26.6515C46.3376 26.2073 46.457 26.0536 47.4118 25.729C47.9232 25.5582 48.3835 25.3703 48.4006 25.319C48.4347 25.2678 48.3495 24.9262 48.2131 24.5845L47.9573 23.9696L47.0196 24.2941C46.4911 24.465 46.0478 24.6017 46.0308 24.5845C45.9455 24.3967 45.6046 23.5596 45.6046 23.5084C45.6046 23.4742 46.0308 23.2009 46.5593 22.9105C47.0708 22.6031 47.5482 22.2614 47.5993 22.1419C47.7016 21.8685 47.1731 21.0315 46.9003 21.0315C46.798 21.0486 46.3376 21.3048 45.8602 21.6294C45.0078 22.2101 45.0078 22.2101 44.735 21.8685C44.4793 21.5269 44.4622 21.5269 43.7462 22.176L43.013 22.8251L43.4392 23.4742C44.0701 24.3967 44.8885 26.6173 45.1272 28.018C45.2465 28.6843 45.2976 29.265 45.2465 29.2992C45.1953 29.3504 44.8544 29.4358 44.4622 29.5042L43.7632 29.6066L43.6439 28.7867C43.4563 27.403 42.8937 25.6266 42.1947 24.3454L41.5468 23.1326L43.7973 21.2536C50.3954 15.7019 52.9527 13.5667 53.9587 12.7638L55.0669 11.8585L56.2604 11.9781C56.9253 12.0464 57.4538 12.0806 57.4708 12.0806C57.6925 11.8414 60.9489 6.30691 60.9489 6.1702C60.9489 5.93109 61.2046 5.87986 57.3174 7.02436L54.1462 7.96386L54.061 8.73254C54.0098 9.15959 53.9246 9.92827 53.8564 10.4407L53.737 11.3802L47.2583 16.7781L40.7626 22.1931L39.7225 21.2536C38.5802 20.2115 36.5343 19.1184 35.1022 18.7938C34.2156 18.5888 34.1815 18.5717 34.1815 18.008C34.1815 17.376 34.1133 17.393 35.716 17.803C36.0399 17.8884 36.3638 17.9567 36.449 17.9567C36.5173 17.9567 36.5684 17.3418 36.5684 16.5731C36.5684 15.309 36.5343 15.1895 36.2103 15.104C35.8864 15.0186 35.8694 14.9162 35.9717 14.1133L36.074 13.208L35.375 13.0884C34.9828 13.0201 34.6418 13.003 34.5907 13.0542C34.5566 13.0884 34.4543 13.4642 34.3861 13.8742C34.3179 14.3012 34.1644 14.6258 34.0451 14.6087C33.9428 14.5916 33.7212 14.5745 33.5848 14.5575C33.3973 14.5404 33.3291 14.3183 33.3291 13.6863V12.8322H32.5618H31.7946V13.6863C31.7946 14.3867 31.7434 14.5404 31.5047 14.5404C31.3343 14.5404 31.0274 14.5916 30.8228 14.6429C30.4818 14.7283 30.4307 14.66 30.3284 14.0621C30.1749 13.0884 30.0726 13.003 29.3395 13.1226L28.6916 13.225L28.811 14.1133C28.9133 14.9504 28.8962 15.0186 28.5211 15.1212C27.9245 15.2749 27.9245 15.2749 27.7028 14.455C27.4641 13.6009 27.43 13.5838 26.5946 13.9254L26.0149 14.1817L26.2536 14.7795C26.39 15.104 26.5093 15.5482 26.5093 15.7532C26.5093 16.0435 27.2595 17.393 27.8051 18.0934C27.8222 18.1275 28.5382 18.008 29.3736 17.803C31.3343 17.3418 31.3172 17.3418 31.2491 17.9739C31.1979 18.4863 31.1297 18.5375 29.8339 18.9304C29.0838 19.1525 28.3507 19.3746 28.1972 19.4258C27.9926 19.4942 27.43 18.7767 25.9978 16.556C24.9408 14.9332 23.969 13.43 23.8326 13.225C23.5939 12.8664 23.628 12.8322 24.5657 12.4051C26.7651 11.3973 30.0385 10.6115 32.1015 10.6115H32.8176V6.76813V2.92465H31.9992H31.1638L30.9421 1.47269C30.6864 -0.201314 30.891 -0.0988522 28.4188 0.276963C27.6346 0.39655 26.9526 0.533189 26.9185 0.58442ZM39.859 31.3832C38.8701 37.1739 31.7094 39.4288 27.5835 35.2437C23.7132 31.2978 25.5375 24.7895 30.9421 23.3205C31.914 23.0472 32.8346 23.0301 34.1133 23.2692C37.8983 23.9696 40.4897 27.6252 39.859 31.3832Z" stroke="white" stroke-width="0.133333"/>
<path d="M31.6244 26.3097C29.6296 26.9589 28.4021 28.7354 28.6066 30.6656C28.8453 32.9717 30.4309 34.4236 32.7326 34.4236C33.6191 34.4236 34.0965 34.3382 34.608 34.0649C37.6086 32.4592 37.6257 28.1717 34.6421 26.6343C33.8919 26.2585 32.3063 26.0877 31.6244 26.3097Z" fill="white"/>
<path d="M28.6066 30.6656C28.8453 32.9717 30.4309 34.4236 32.7326 34.4236C33.6191 34.4236 34.0965 34.3382 34.608 34.0649C37.6086 32.4592 37.6257 28.1717 34.6421 26.6343C33.8919 26.2585 32.3063 26.0877 31.6244 26.3097C29.6296 26.9589 28.4021 28.7354 28.6066 30.6656Z" stroke="white" stroke-width="0.133333"/>
<path d="M42.3825 17.3931L41.7006 18.1959L41.2573 17.7859C41.0357 17.5639 40.797 17.4101 40.7629 17.4614C40.7288 17.4955 40.4901 17.9738 40.2343 18.5375L39.757 19.5283L40.5071 20.1945C40.9163 20.5532 41.3084 20.8436 41.3596 20.8607C41.6494 20.8778 43.0134 19.6137 42.9281 19.3916C42.877 19.2721 43.1157 18.845 43.4566 18.435C43.7976 18.0422 44.0704 17.6322 44.0704 17.5126C44.0704 17.3931 43.8488 17.1368 43.576 16.9489L43.0816 16.5902L42.3825 17.3931Z" fill="white"/>
<path d="M41.7006 18.1959L41.2573 17.7859C41.0357 17.5639 40.797 17.4101 40.7629 17.4614C40.7288 17.4955 40.4901 17.9738 40.2343 18.5375L39.757 19.5283L40.5071 20.1945C40.9163 20.5532 41.3084 20.8436 41.3596 20.8607C41.6494 20.8778 43.0134 19.6137 42.9281 19.3916C42.877 19.2721 43.1157 18.845 43.4566 18.435C43.7976 18.0422 44.0704 17.6322 44.0704 17.5126C44.0704 17.3931 43.8488 17.1368 43.576 16.9489L43.0816 16.5902L42.3825 17.3931L41.7006 18.1959Z" stroke="white" stroke-width="0.133333"/>
<path d="M20.9517 17.8543C20.6448 18.0935 20.6448 18.1277 21.1903 18.6742C21.8041 19.3234 21.8553 19.5284 21.4802 19.8359C21.2244 20.0409 21.1392 20.0067 20.0992 19.238C19.9458 19.1355 19.7412 19.2038 19.4343 19.4942C19.1956 19.7163 19.008 19.9725 19.008 20.075C19.0251 20.1775 19.3149 20.485 19.673 20.7754L20.3208 21.2878L19.9969 21.9369L19.673 22.586L18.8887 22.159C18.4625 21.9199 18.0533 21.7149 17.968 21.7149C17.8828 21.7149 17.6952 21.954 17.5589 22.2444C17.2349 22.8764 17.3543 23.0644 18.3261 23.5085C19.0251 23.8159 19.1274 24.0039 18.8546 24.448C18.7182 24.653 18.5648 24.653 17.7293 24.3797C17.2008 24.2089 16.7405 24.1063 16.7234 24.1405C16.6041 24.3113 16.2802 25.1654 16.2802 25.285C16.2802 25.3704 16.7405 25.5925 17.3202 25.7975C18.0874 26.0878 18.3261 26.2416 18.2579 26.4466C18.2067 26.5832 18.1556 26.8053 18.1556 26.959C18.1556 27.1811 17.968 27.1982 16.9792 27.0957L15.8198 26.9761L15.7005 27.5227C15.53 28.4452 15.5641 28.4964 16.4165 28.616C17.61 28.7868 17.8146 28.8893 17.8146 29.2309C17.8146 29.5213 17.6612 29.5555 16.6723 29.6067L15.5129 29.658L15.4618 30.3754L15.4106 31.1099H16.6041H17.7975L17.8998 31.9128C18.0703 33.1768 18.0533 33.1598 19.1615 33.1598H20.1674L19.9969 32.4252C19.7241 31.2466 19.9287 27.796 20.372 26.4124C20.9346 24.6359 21.8212 23.0472 22.9635 21.8003L23.9864 20.69L23.2533 19.6992C22.435 18.606 21.5484 17.6152 21.3949 17.6152C21.3438 17.6152 21.1392 17.7177 20.9517 17.8543Z" fill="white"/>
<path d="M21.1903 18.6742C21.8041 19.3234 21.8553 19.5284 21.4802 19.8359C21.2244 20.0409 21.1392 20.0067 20.0992 19.238C19.9458 19.1355 19.7412 19.2038 19.4343 19.4942C19.1956 19.7163 19.008 19.9725 19.008 20.075C19.0251 20.1775 19.3149 20.485 19.673 20.7754L20.3208 21.2878L19.9969 21.9369L19.673 22.586L18.8887 22.159C18.4625 21.9199 18.0533 21.7149 17.968 21.7149C17.8828 21.7149 17.6952 21.954 17.5589 22.2444C17.2349 22.8764 17.3543 23.0644 18.3261 23.5085C19.0251 23.8159 19.1274 24.0039 18.8546 24.448C18.7182 24.653 18.5648 24.653 17.7293 24.3797C17.2008 24.2089 16.7405 24.1063 16.7234 24.1405C16.6041 24.3113 16.2802 25.1654 16.2802 25.285C16.2802 25.3704 16.7405 25.5925 17.3202 25.7975C18.0874 26.0878 18.3261 26.2416 18.2579 26.4466C18.2067 26.5832 18.1556 26.8053 18.1556 26.959C18.1556 27.1811 17.968 27.1982 16.9792 27.0957L15.8198 26.9761L15.7005 27.5227C15.53 28.4452 15.5641 28.4964 16.4165 28.616C17.61 28.7868 17.8146 28.8893 17.8146 29.2309C17.8146 29.5213 17.6612 29.5555 16.6723 29.6067L15.5129 29.658L15.4618 30.3754L15.4106 31.1099H16.6041H17.7975L17.8998 31.9128C18.0703 33.1768 18.0533 33.1598 19.1615 33.1598H20.1674L19.9969 32.4252C19.7241 31.2466 19.9287 27.796 20.372 26.4124C20.9346 24.6359 21.8212 23.0472 22.9635 21.8003L23.9864 20.69L23.2533 19.6992C22.435 18.606 21.5484 17.6152 21.3949 17.6152C21.3438 17.6152 21.1392 17.7177 20.9517 17.8543C20.6448 18.0935 20.6448 18.1277 21.1903 18.6742Z" stroke="white" stroke-width="0.133333"/>
</g>
<defs>
<clipPath id="clip0_1_5788">
<rect width="61" height="60" fill="white"/>
</clipPath>
</defs>
</svg>
