<svg width="32" height="32" viewBox="0 0 32 32" fill="none" xmlns="http://www.w3.org/2000/svg">
<g clip-path="url(#clip0_1190_2501)">
<path d="M7.7824 32H24.2144C28.512 32 31.9968 28.5152 31.9968 24.2176V7.7824C32 3.4944 28.528 0.0128 24.24 0H7.76C3.472 0.0128 0 3.4944 0 7.7824V24.2144C0 28.5152 3.4848 32 7.7824 32Z" fill="#100943"/>
<path d="M24.24 0H16C16 8.8352 23.1648 16 32 16V7.7824C32 3.4944 28.528 0.0128 24.24 0Z" fill="#ED143B"/>
<path d="M19.7664 15.2704H10.3136V11.5296H19.7664C20.32 11.5296 20.704 11.6256 20.896 11.7952C21.088 11.9648 21.2096 12.2752 21.2096 12.7296V14.0736C21.2096 14.5536 21.0912 14.864 20.896 15.0336C20.704 15.2 20.32 15.2704 19.7664 15.2704ZM20.416 8H6.30402V24H10.3136V18.7936H17.7024L21.2064 24H25.696L21.8304 18.7712C23.2544 18.56 23.8944 18.1216 24.4224 17.4048C24.9504 16.6848 25.216 15.5328 25.216 14V12.8C25.216 11.888 25.12 11.168 24.9504 10.6176C24.7808 10.0672 24.496 9.5872 24.0864 9.1552C23.6544 8.7456 23.1744 8.4608 22.5984 8.2688C22.0224 8.096 21.3024 8 20.416 8Z" fill="white"/>
</g>
<defs>
<clipPath id="clip0_1190_2501">
<rect width="32" height="32" fill="white"/>
</clipPath>
</defs>
</svg>
