<svg width="32" height="32" viewBox="0 0 32 32" fill="none" xmlns="http://www.w3.org/2000/svg">
<g clip-path="url(#clip0_1190_2497)">
<path d="M16 32C24.8366 32 32 24.8366 32 16C32 7.16344 24.8366 0 16 0C7.16344 0 0 7.16344 0 16C0 24.8366 7.16344 32 16 32Z" fill="url(#paint0_linear_1190_2497)"/>
<path fill-rule="evenodd" clip-rule="evenodd" d="M7.24158 15.8304C11.9072 13.7984 15.0176 12.4576 16.5728 11.8112C21.0176 9.96163 21.9392 9.64163 22.5408 9.63203C22.672 9.62883 22.9696 9.66403 23.1616 9.81763C23.3248 9.94883 23.3696 10.1248 23.3888 10.2496C23.408 10.3744 23.4368 10.6592 23.4144 10.88C23.1744 13.4112 22.1312 19.5488 21.6032 22.384C21.3792 23.584 20.9376 23.984 20.5088 24.0256C19.5808 24.112 18.8736 23.4112 17.9744 22.8224C16.5664 21.9008 15.7696 21.3248 14.4032 20.4224C12.8224 19.3824 13.8464 18.8096 14.7488 17.8752C14.9856 17.632 19.0784 13.9072 19.1584 13.568C19.168 13.5264 19.1776 13.3696 19.0848 13.2864C18.992 13.2032 18.8544 13.232 18.752 13.2544C18.6112 13.2864 16.3616 14.7744 12.0032 17.7152C11.3632 18.1536 10.7872 18.368 10.2688 18.3552C9.69598 18.3424 8.59838 18.032 7.78238 17.7664C6.78078 17.44 5.98398 17.2672 6.05438 16.7168C6.08958 16.4256 6.48638 16.1312 7.24158 15.8304Z" fill="white"/>
</g>
<defs>
<linearGradient id="paint0_linear_1190_2497" x1="15.9986" y1="0" x2="15.9986" y2="31.7632" gradientUnits="userSpaceOnUse">
<stop stop-color="#2AABEE"/>
<stop offset="1" stop-color="#229ED9"/>
</linearGradient>
<clipPath id="clip0_1190_2497">
<rect width="32" height="32" fill="white"/>
</clipPath>
</defs>
</svg>
