<svg width="32" height="32" viewBox="0 0 32 32" fill="none" xmlns="http://www.w3.org/2000/svg">
<g clip-path="url(#clip0_1190_2494)">
<path d="M15.3472 32.0128H16.6816C23.936 32.0128 27.5488 32.0128 29.7888 29.7728C32.016 27.5328 32.016 23.9072 32.016 16.6784V15.3184C32.016 8.11842 32.016 4.49282 29.7888 2.25282C27.5488 0.0128174 23.9232 0.0128174 16.6816 0.0128174H15.3472C8.09279 0.0128174 4.47999 0.0128174 2.23999 2.25282C0.0159912 4.49282 0.0159912 8.12162 0.0159912 15.3472V16.7072C0.0159912 23.9072 0.0159912 27.5328 2.25599 29.7728C4.49599 32.0128 8.12159 32.0128 15.3472 32.0128Z" fill="#0077FF"/>
<path d="M17.0432 23.0656C9.7504 23.0656 5.5904 18.0672 5.4176 9.74719H9.072C9.1936 15.8528 11.8848 18.4416 14.0192 18.9728V9.74719H17.4592V15.0144C19.5648 14.7872 21.7792 12.3872 22.5248 9.74719H25.9648C25.3952 12.5152 23.6992 14.9216 21.2832 16.3872C23.9808 17.728 25.9744 20.16 26.7616 23.0656H22.976C22.2624 20.512 20.0864 18.6368 17.456 18.304V23.0656H17.0432Z" fill="white"/>
</g>
<defs>
<clipPath id="clip0_1190_2494">
<rect width="32" height="32" fill="white"/>
</clipPath>
</defs>
</svg>
