<svg width="32" height="22" viewBox="0 0 32 22" fill="none" xmlns="http://www.w3.org/2000/svg">
<g clip-path="url(#clip0_1190_2506)">
<path d="M15.9832 22C15.9832 22 26.0077 22 28.4942 21.34C29.8943 20.966 30.9472 19.888 31.3167 18.557C32 16.115 32 10.978 32 10.978C32 10.978 32 5.874 31.3167 3.454C30.9472 2.09 29.8943 1.034 28.4942 0.671C26.0077 0 15.9832 0 15.9832 0C15.9832 0 5.9811 0 3.50578 0.671C2.12811 1.034 1.05285 2.09 0.660833 3.454C0 5.874 0 10.978 0 10.978C0 10.978 0 16.115 0.660833 18.557C1.05285 19.888 2.12811 20.966 3.50578 21.34C5.9811 22 15.9832 22 15.9832 22Z" fill="#FF0033"/>
<path d="M20.9655 11L12.6896 6.32495V15.675L20.9655 11Z" fill="white"/>
</g>
<defs>
<clipPath id="clip0_1190_2506">
<rect width="32" height="22" fill="white"/>
</clipPath>
</defs>
</svg>
